<?xml version="1.0" encoding="UTF-8"?>
<svg width="21px" height="16px" viewBox="0 0 21 16" version="1.1" xmlns="http://www.w3.org/2000/svg" xmlns:xlink="http://www.w3.org/1999/xlink">
    <!-- Generator: Sketch 47.1 (45422) - http://www.bohemiancoding.com/sketch -->
    <title>checked</title>
    <desc>Created with Sketch.</desc>
    <defs></defs>
    <g id="Review-and-Submit" stroke="none" stroke-width="1" fill="none" fill-rule="evenodd">
        <path d="M20.7589533,3.10714656 C20.7589533,2.77232473 20.6250246,2.43750291 20.3839529,2.19643119 L18.5625221,0.375000447 C18.3214504,0.133928731 17.9866286,0 17.6518068,0 C17.3169849,0 16.9821631,0.133928731 16.7410914,0.375000447 L7.95536663,9.17411808 L4.01786193,5.22322051 C3.77679022,4.9821488 3.44196839,4.84822007 3.10714656,4.84822007 C2.77232473,4.84822007 2.43750291,4.9821488 2.19643119,5.22322051 L0.375000447,7.04465126 C0.133928731,7.28572297 0,7.6205448 0,7.95536663 C0,8.29018845 0.133928731,8.62501028 0.375000447,8.866082 L7.04465126,15.5357328 C7.28572297,15.7768045 7.6205448,15.9107333 7.95536663,15.9107333 C8.29018845,15.9107333 8.62501028,15.7768045 8.866082,15.5357328 L20.3839529,4.01786193 C20.6250246,3.77679022 20.7589533,3.44196839 20.7589533,3.10714656 Z" id="checked" fill="#FFFFFF"></path>
    </g>
</svg>