<?xml version="1.0" encoding="UTF-8"?>
<svg width="32px" height="32px" viewBox="0 0 32 32" version="1.1" xmlns="http://www.w3.org/2000/svg" xmlns:xlink="http://www.w3.org/1999/xlink">
    <!-- Generator: Sketch 46.2 (44496) - http://www.bohemiancoding.com/sketch -->
    <title></title>
    <desc>Created with Sketch.</desc>
    <defs></defs>
    <g id="EQRS-Style-Guide-1.0" stroke="none" stroke-width="1" fill="none" fill-rule="evenodd">
        <g id="Alerts" transform="translate(-112.000000, -405.000000)" fill="#000000">
            <g transform="translate(95.000000, 164.000000)" id="Error">
                <g transform="translate(0.000000, 224.000000)">
                    <path d="M32.9256898,17.685452 C41.4435571,17.685452 48.3542796,24.5961745 48.3542796,33.1140418 C48.3542796,41.6319091 41.4435571,48.5426316 32.9256898,48.5426316 C24.4078225,48.5426316 17.4971,41.6319091 17.4971,33.1140418 C17.4971,24.5961745 24.4078225,17.685452 32.9256898,17.685452 Z M35.4971215,42.7368211 L35.4971215,38.9198523 C35.4971215,38.5582447 35.2158711,38.2569051 34.8743529,38.2569051 L31.0172054,38.2569051 C30.6555978,38.2569051 30.3542582,38.5582447 30.3542582,38.9198523 L30.3542582,42.7368211 C30.3542582,43.0984287 30.6555978,43.3997684 31.0172054,43.3997684 L34.8743529,43.3997684 C35.2158711,43.3997684 35.4971215,43.0984287 35.4971215,42.7368211 Z M35.4569428,35.8260986 L35.8185504,23.3506373 C35.8185504,23.2100122 35.7582825,23.069387 35.6176573,22.9890297 C35.4971215,22.8885832 35.3163177,22.8283153 35.1355139,22.8283153 L30.7158658,22.8283153 C30.535062,22.8283153 30.3542582,22.8885832 30.2337223,22.9890297 C30.0930972,23.069387 30.0328292,23.2100122 30.0328292,23.3506373 L30.3743475,35.8260986 C30.3743475,36.107349 30.6756871,36.3283314 31.057384,36.3283314 L34.7739063,36.3283314 C35.1355139,36.3283314 35.4368535,36.107349 35.4569428,35.8260986 Z" id=""></path>
                </g>
            </g>
        </g>
    </g>
</svg>