<?xml version="1.0" encoding="UTF-8"?>
<svg width="11px" height="11px" viewBox="0 0 11 11" version="1.1" xmlns="http://www.w3.org/2000/svg" xmlns:xlink="http://www.w3.org/1999/xlink">
    <!-- Generator: Sketch 46.2 (44496) - http://www.bohemiancoding.com/sketch -->
    <title>history@1x</title>
    <desc>Created with Sketch.</desc>
    <defs></defs>
    <g id="Address-history" stroke="none" stroke-width="1" fill="none" fill-rule="evenodd">
        <g id="Edit-Contact-Info-Copy-3" transform="translate(-816.000000, -738.000000)" fill="#0071BB">
            <path d="M826.285727,743.714281 C826.285727,746.546873 823.975456,748.857144 821.142863,748.857144 C819.609379,748.857144 818.162949,748.180804 817.185269,747.002231 C817.118305,746.915177 817.125001,746.787945 817.198662,746.714284 L818.116074,745.790176 C818.162949,745.749997 818.223217,745.729908 818.283485,745.729908 C818.343753,745.736604 818.404021,745.76339 818.437503,745.810265 C819.093754,746.660713 820.07813,747.142856 821.142863,747.142856 C823.031258,747.142856 824.571439,745.602676 824.571439,743.714281 C824.571439,741.825885 823.031258,740.285705 821.142863,740.285705 C820.26563,740.285705 819.435272,740.620527 818.812503,741.203117 L819.729915,742.127225 C819.857147,742.247761 819.89063,742.435261 819.823665,742.589279 C819.756701,742.749994 819.602683,742.857137 819.428576,742.857137 L816.428572,742.857137 C816.194197,742.857137 816,742.66294 816,742.428565 L816,739.428561 C816,739.254454 816.107143,739.100436 816.267857,739.033471 C816.421876,738.966507 816.609376,738.999989 816.729912,739.127222 L817.600448,739.991062 C818.544646,739.100436 819.823665,738.571417 821.142863,738.571417 C823.975456,738.571417 826.285727,740.881688 826.285727,743.714281 Z M822.000007,741.785707 L822.000007,744.78571 C822.000007,744.906246 821.906257,744.999996 821.785721,744.999996 L819.642861,744.999996 C819.522326,744.999996 819.428576,744.906246 819.428576,744.78571 L819.428576,744.357139 C819.428576,744.236603 819.522326,744.142853 819.642861,744.142853 L821.142863,744.142853 L821.142863,741.785707 C821.142863,741.665171 821.236613,741.571421 821.357149,741.571421 L821.785721,741.571421 C821.906257,741.571421 822.000007,741.665171 822.000007,741.785707 Z" id="history"></path>
        </g>
    </g>
</svg>