<?xml version="1.0" encoding="UTF-8"?>
<svg width="48px" height="48px" viewBox="0 0 48 48" version="1.1" xmlns="http://www.w3.org/2000/svg" xmlns:xlink="http://www.w3.org/1999/xlink">
    <!-- Generator: Sketch 46.2 (44496) - http://www.bohemiancoding.com/sketch -->
    <title>review-submit-success</title>
    <desc>Created with Sketch.</desc>
    <defs></defs>
    <g id="Review-and-Submit" stroke="none" stroke-width="1" fill="none" fill-rule="evenodd">
        <g id="Progress-Indicator-v1-Copy-3" transform="translate(-343.000000, -607.000000)">
            <g id="review-submit-success" transform="translate(343.000000, 607.000000)">
                <circle id="Oval-2" fill="#0071BB" cx="24" cy="24" r="24"></circle>
                <circle id="Oval-2" stroke="#0071BB" fill="#FFFFFF" cx="24" cy="24" r="18"></circle>
                <path d="M34.379491,19.0089131 C34.379491,18.6740913 34.2455622,18.3392694 34.0044905,18.0981977 L32.1830598,16.276767 C31.9419881,16.0356953 31.6071662,15.9017665 31.2723444,15.9017665 C30.9375226,15.9017665 30.6027007,16.0356953 30.361629,16.276767 L21.5759043,25.0758846 L17.6383996,21.124987 C17.3973279,20.8839153 17.062506,20.7499866 16.7276842,20.7499866 C16.3928624,20.7499866 16.0580406,20.8839153 15.8169688,21.124987 L13.9955381,22.9464178 C13.7544664,23.1874895 13.6205376,23.5223113 13.6205376,23.8571332 C13.6205376,24.191955 13.7544664,24.5267768 13.9955381,24.7678485 L20.6651889,31.4374993 C20.9062606,31.678571 21.2410824,31.8124998 21.5759043,31.8124998 C21.9107261,31.8124998 22.2455479,31.678571 22.4866196,31.4374993 L34.0044905,19.9196285 C34.2455622,19.6785567 34.379491,19.3437349 34.379491,19.0089131 Z" id="check" fill="#0071BB"></path>
            </g>
        </g>
    </g>
</svg>