<?xml version="1.0" encoding="UTF-8"?>
<svg width="17px" height="17px" viewBox="0 0 17 17" version="1.1" xmlns="http://www.w3.org/2000/svg" xmlns:xlink="http://www.w3.org/1999/xlink">
    <!-- Generator: Sketch 47.1 (45422) - http://www.bohemiancoding.com/sketch -->
    <title>search</title>
    <desc>Created with Sketch.</desc>
    <defs></defs>
    <g id="EQRS-Style-Guide-1.0" stroke="none" stroke-width="1" fill="none" fill-rule="evenodd">
        <g id="Other" transform="translate(-219.000000, -575.000000)" fill="#0071BC">
            <path d="M230.571442,582.071437 C230.571442,579.590407 228.552467,577.571432 226.071437,577.571432 C223.590407,577.571432 221.571432,579.590407 221.571432,582.071437 C221.571432,584.552467 223.590407,586.571442 226.071437,586.571442 C228.552467,586.571442 230.571442,584.552467 230.571442,582.071437 Z M235.714306,590.42859 C235.714306,591.131716 235.131716,591.714306 234.42859,591.714306 C234.087072,591.714306 233.755598,591.57368 233.524571,591.332609 L230.079254,587.897337 C228.90403,588.710954 227.497778,589.142874 226.071437,589.142874 C222.164066,589.142874 219,585.978808 219,582.071437 C219,578.164066 222.164066,575 226.071437,575 C229.978808,575 233.142874,578.164066 233.142874,582.071437 C233.142874,583.497778 232.710954,584.90403 231.897337,586.079254 L235.342653,589.524571 C235.57368,589.755598 235.714306,590.087072 235.714306,590.42859 Z" id="search"></path>
        </g>
    </g>
</svg>