<?xml version="1.0" encoding="UTF-8"?>
<svg width="16px" height="16px" viewBox="0 0 16 16" version="1.1" xmlns="http://www.w3.org/2000/svg" xmlns:xlink="http://www.w3.org/1999/xlink">
    <!-- Generator: Sketch 45.2 (43514) - http://www.bohemiancoding.com/sketch -->
    <title>pencil</title>
    <desc>Created with Sketch.</desc>
    <defs></defs>
    <g id="EQRS-Style-Guide-1.0" stroke="none" stroke-width="1" fill="none" fill-rule="evenodd">
        <g id="Other" transform="translate(-299.000000, -575.000000)" fill="#0071BC">
            <path d="M302.64621,589 L303.560273,588.085936 L301.199779,585.725443 L300.285716,586.639506 L300.285716,587.714284 L301.571432,587.714284 L301.571432,589 L302.64621,589 Z M307.899564,579.67856 C307.899564,579.54798 307.809162,579.457578 307.678582,579.457578 C307.618314,579.457578 307.558046,579.477667 307.507823,579.52789 L302.06362,584.972093 C302.013396,585.022317 301.993307,585.082585 301.993307,585.142853 C301.993307,585.273433 302.083709,585.363835 302.21429,585.363835 C302.274557,585.363835 302.334825,585.343746 302.385049,585.293522 L307.829252,579.849319 C307.879475,579.799096 307.899564,579.738828 307.899564,579.67856 Z M307.357153,577.749987 L311.535729,581.928563 L303.178576,590.285716 L299,590.285716 L299,586.107139 L307.357153,577.749987 Z M314.217652,578.714273 C314.217652,579.055792 314.077027,579.387265 313.846,579.618292 L312.178587,581.285705 L308.000011,577.107129 L309.667423,575.449761 C309.89845,575.208689 310.229924,575.068064 310.571442,575.068064 C310.912961,575.068064 311.244434,575.208689 311.485506,575.449761 L313.846,577.80021 C314.077027,578.041282 314.217652,578.372755 314.217652,578.714273 Z" id="pencil"></path>
        </g>
    </g>
</svg>