<?xml version="1.0" encoding="UTF-8"?>
<svg width="37px" height="34px" viewBox="0 0 37 34" version="1.1" xmlns="http://www.w3.org/2000/svg" xmlns:xlink="http://www.w3.org/1999/xlink">
    <!-- Generator: Sketch 46.2 (44496) - http://www.bohemiancoding.com/sketch -->
    <title></title>
    <desc>Created with Sketch.</desc>
    <defs></defs>
    <g id="EQRS-Style-Guide-1.0" stroke="none" stroke-width="1" fill="none" fill-rule="evenodd">
        <g id="Alerts" transform="translate(-112.000000, -294.000000)" fill="#000000">
            <g transform="translate(95.000000, 164.000000)" id="Warning">
                <g transform="translate(0.000000, 112.000000)">
                    <path d="M38.0685531,45.7368211 L38.0685531,41.9198523 C38.0685531,41.5582447 37.7873028,41.2569051 37.4256952,41.2569051 L33.5685477,41.2569051 C33.2069402,41.2569051 32.9256898,41.5582447 32.9256898,41.9198523 L32.9256898,45.7368211 C32.9256898,46.0984287 33.2069402,46.3997684 33.5685477,46.3997684 L37.4256952,46.3997684 C37.7873028,46.3997684 38.0685531,46.0984287 38.0685531,45.7368211 Z M38.0283745,38.2234193 L38.389982,29.0024262 C38.389982,28.8818903 38.3297141,28.7211759 38.189089,28.6207293 C38.0685531,28.5202828 37.8877493,28.3997469 37.7069455,28.3997469 L33.2872974,28.3997469 C33.1064936,28.3997469 32.9256898,28.5202828 32.805154,28.6207293 C32.6645288,28.7211759 32.6042609,28.922069 32.6042609,29.0426048 L32.9457791,38.2234193 C32.9457791,38.4845804 33.2471188,38.6854735 33.6288157,38.6854735 L37.3453379,38.6854735 C37.7069455,38.6854735 38.0082852,38.4845804 38.0283745,38.2234193 Z M37.7471241,19.4600041 L53.175714,47.7457521 C53.6176788,48.5292352 53.5975895,49.4935221 53.1355353,50.2770051 C52.6734812,51.0604882 51.8297302,51.5426316 50.9257113,51.5426316 L20.0685316,51.5426316 C19.1645127,51.5426316 18.3207617,51.0604882 17.8587076,50.2770051 C17.3966535,49.4935221 17.3765641,48.5292352 17.818529,47.7457521 L33.2471188,19.4600041 C33.6890836,18.6363424 34.5529239,18.1140204 35.4971215,18.1140204 C36.441319,18.1140204 37.3051593,18.6363424 37.7471241,19.4600041 Z" id=""></path>
                </g>
            </g>
        </g>
    </g>
</svg>