<?xml version="1.0" encoding="UTF-8"?>
<svg width="13px" height="13px" viewBox="0 0 13 13" version="1.1" xmlns="http://www.w3.org/2000/svg" xmlns:xlink="http://www.w3.org/1999/xlink">
    <!-- Generator: Sketch 46.2 (44496) - http://www.bohemiancoding.com/sketch -->
    <title>add</title>
    <desc>Created with Sketch.</desc>
    <defs></defs>
    <g id="Address-history" stroke="none" stroke-width="1" fill="none" fill-rule="evenodd">
        <g id="View-Addresses-Copy-2" transform="translate(-560.000000, -258.000000)" fill="#0071BC">
            <path d="M572.571444,263.857134 C572.571444,263.383919 572.187515,262.99999 571.7143,262.99999 L568.00001,262.99999 L568.00001,259.2857 C568.00001,258.812485 567.616081,258.428556 567.142866,258.428556 L565.428578,258.428556 C564.955363,258.428556 564.571434,258.812485 564.571434,259.2857 L564.571434,262.99999 L560.857144,262.99999 C560.383929,262.99999 560,263.383919 560,263.857134 L560,265.571422 C560,266.044637 560.383929,266.428566 560.857144,266.428566 L564.571434,266.428566 L564.571434,270.142856 C564.571434,270.616071 564.955363,271 565.428578,271 L567.142866,271 C567.616081,271 568.00001,270.616071 568.00001,270.142856 L568.00001,266.428566 L571.7143,266.428566 C572.187515,266.428566 572.571444,266.044637 572.571444,265.571422 L572.571444,263.857134 Z" id="add"></path>
        </g>
    </g>
</svg>