<?xml version="1.0" encoding="UTF-8"?>
<svg width="16px" height="17px" viewBox="0 0 16 17" version="1.1" xmlns="http://www.w3.org/2000/svg" xmlns:xlink="http://www.w3.org/1999/xlink">
    <!-- Generator: Sketch 45.2 (43514) - http://www.bohemiancoding.com/sketch -->
    <title></title>
    <desc>Created with Sketch.</desc>
    <defs></defs>
    <g id="EQRS-Style-Guide-1.0" stroke="none" stroke-width="1" fill="none" fill-rule="evenodd">
        <g id="Forms" transform="translate(-314.000000, -559.000000)" fill="#CD2026">
            <path d="M321.714295,559.857126 C325.973229,559.857126 329.42859,563.312487 329.42859,567.571421 C329.42859,571.830355 325.973229,575.285716 321.714295,575.285716 C317.455361,575.285716 314,571.830355 314,567.571421 C314,563.312487 317.455361,559.857126 321.714295,559.857126 Z M323.000011,572.382811 L323.000011,570.474326 C323.000011,570.293522 322.859386,570.142853 322.688626,570.142853 L320.760053,570.142853 C320.579249,570.142853 320.428579,570.293522 320.428579,570.474326 L320.428579,572.382811 C320.428579,572.563614 320.579249,572.714284 320.760053,572.714284 L322.688626,572.714284 C322.859386,572.714284 323.000011,572.563614 323.000011,572.382811 Z M322.979921,568.927449 L323.160725,562.689719 C323.160725,562.619406 323.130591,562.549093 323.060279,562.508915 C323.000011,562.458692 322.909609,562.428558 322.819207,562.428558 L320.609383,562.428558 C320.518981,562.428558 320.428579,562.458692 320.368311,562.508915 C320.297999,562.549093 320.267865,562.619406 320.267865,562.689719 L320.438624,568.927449 C320.438624,569.068074 320.589294,569.178566 320.780142,569.178566 L322.638403,569.178566 C322.819207,569.178566 322.969877,569.068074 322.979921,568.927449 Z" id=""></path>
        </g>
    </g>
</svg>