<?xml version="1.0" encoding="UTF-8"?>
<svg width="32px" height="32px" viewBox="0 0 32 32" version="1.1" xmlns="http://www.w3.org/2000/svg" xmlns:xlink="http://www.w3.org/1999/xlink">
    <!-- Generator: Sketch 46.2 (44496) - http://www.bohemiancoding.com/sketch -->
    <title></title>
    <desc>Created with Sketch.</desc>
    <defs></defs>
    <g id="EQRS-Style-Guide-1.0" stroke="none" stroke-width="1" fill="none" fill-rule="evenodd">
        <g id="Alerts" transform="translate(-112.000000, -519.000000)" fill="#000000">
            <g transform="translate(95.000000, 164.000000)" id="Informative">
                <g transform="translate(0.000000, 337.000000)">
                    <path d="M38.0685531,43.7569105 L38.0685531,40.5426209 C38.0685531,40.1810133 37.7873028,39.899763 37.4256952,39.899763 L35.4971215,39.899763 L35.4971215,29.6140365 C35.4971215,29.2524289 35.2158711,28.9711785 34.8542635,28.9711785 L28.4256845,28.9711785 C28.0640769,28.9711785 27.7828265,29.2524289 27.7828265,29.6140365 L27.7828265,32.828326 C27.7828265,33.1899336 28.0640769,33.4711839 28.4256845,33.4711839 L30.3542582,33.4711839 L30.3542582,39.899763 L28.4256845,39.899763 C28.0640769,39.899763 27.7828265,40.1810133 27.7828265,40.5426209 L27.7828265,43.7569105 C27.7828265,44.118518 28.0640769,44.3997684 28.4256845,44.3997684 L37.4256952,44.3997684 C37.7873028,44.3997684 38.0685531,44.118518 38.0685531,43.7569105 Z M35.4971215,25.756889 L35.4971215,22.5425995 C35.4971215,22.1809919 35.2158711,21.8997415 34.8542635,21.8997415 L30.9971161,21.8997415 C30.6355085,21.8997415 30.3542582,22.1809919 30.3542582,22.5425995 L30.3542582,25.756889 C30.3542582,26.1184966 30.6355085,26.3997469 30.9971161,26.3997469 L34.8542635,26.3997469 C35.2158711,26.3997469 35.4971215,26.1184966 35.4971215,25.756889 Z M48.3542796,34.1140418 C48.3542796,42.6319091 41.4435571,49.5426316 32.9256898,49.5426316 C24.4078225,49.5426316 17.4971,42.6319091 17.4971,34.1140418 C17.4971,25.5961745 24.4078225,18.685452 32.9256898,18.685452 C41.4435571,18.685452 48.3542796,25.5961745 48.3542796,34.1140418 Z" id=""></path>
                </g>
            </g>
        </g>
    </g>
</svg>