<?xml version="1.0" encoding="UTF-8"?>
<svg width="32px" height="32px" viewBox="0 0 32 32" version="1.1" xmlns="http://www.w3.org/2000/svg" xmlns:xlink="http://www.w3.org/1999/xlink">
    <!-- Generator: Sketch 46.2 (44496) - http://www.bohemiancoding.com/sketch -->
    <title></title>
    <desc>Created with Sketch.</desc>
    <defs></defs>
    <g id="EQRS-Style-Guide-1.0" stroke="none" stroke-width="1" fill="none" fill-rule="evenodd">
        <g id="Alerts" transform="translate(-112.000000, -182.000000)" fill="#000000">
            <g transform="translate(95.000000, 164.000000)" id="Success">
                <g>
                    <path d="M43.2917736,30.8595737 C43.2917736,30.5180554 43.1712377,30.1765371 42.930166,29.9354654 L41.1020389,28.1274275 C40.8609671,27.8863558 40.5395382,27.7457307 40.1980199,27.7457307 C39.8565017,27.7457307 39.5350727,27.8863558 39.294001,28.1274275 L31.0975626,36.3037766 L26.5573787,31.7635926 C26.3163069,31.5225209 25.994878,31.3818957 25.6533597,31.3818957 C25.3118415,31.3818957 24.9904125,31.5225209 24.7493408,31.7635926 L22.9212136,33.5716305 C22.6801419,33.8127022 22.559606,34.1542204 22.559606,34.4957387 C22.559606,34.837257 22.6801419,35.1586859 22.9212136,35.3997576 L30.1935437,42.6720877 C30.4346154,42.9131594 30.7761337,43.0537846 31.0975626,43.0537846 C31.4390809,43.0537846 31.7805992,42.9131594 32.0216709,42.6720877 L42.930166,31.7635926 C43.1712377,31.5225209 43.2917736,31.2010919 43.2917736,30.8595737 Z M48.3542796,34.1140418 C48.3542796,42.6319091 41.4435571,49.5426316 32.9256898,49.5426316 C24.4078225,49.5426316 17.4971,42.6319091 17.4971,34.1140418 C17.4971,25.5961745 24.4078225,18.685452 32.9256898,18.685452 C41.4435571,18.685452 48.3542796,25.5961745 48.3542796,34.1140418 Z" id=""></path>
                </g>
            </g>
        </g>
    </g>
</svg>